<svg width="24" height="24" viewBox="0 0 24 24" xmlns="http://www.w3.org/2000/svg">
    <path d="M8.827.242A.719.719 0 0 0 8.025.05a.83.83 0 0 0-.432.192 49.862 49.862 0 0 0-3.145 2.875c-.433.432-.219 1 .181 1.251 2.108 2.507 4.513 4.99 6.618 7.5-2.387 2.398-4.688 5.114-6.978 7.601a.773.773 0 0 0-.144.877c.02.256.174.49.397.663 1.048.81 2.06 1.663 3.041 2.552.247.405.824.628 1.263.196 3.506-3.446 6.575-7.331 10.422-10.422a.76.76 0 0 0 .221-.274c.22-.29.276-.707-.041-1.05C15.84 8.138 12.506 4.035 8.827.243zM8.27 22.027a56.068 56.068 0 0 0-2.362-1.966c2.185-2.44 4.438-5.058 6.781-7.355.122-.12.19-.25.22-.382.196-.289.243-.692-.04-1.03-2.126-2.547-4.56-5.061-6.698-7.597a50.57 50.57 0 0 1 1.988-1.81c3.293 3.445 6.332 7.118 9.546 10.634-3.448 2.858-6.29 6.333-9.435 9.506z"/>
</svg>
