<svg width="24" height="24" viewBox="0 0 24 24" xmlns="http://www.w3.org/2000/svg">
    <path d="M23.28 15.396c-5.232.558-10.517 1.407-15.78.75-.03-.016-.062-.032-.095-.044-.48-.18-.642-.48-.638-.925.447-.64 1.404-.598 2.073-.546.938.072 1.868.063 2.808.054 2.44-.026 4.889-.191 7.309-.504a78.915 78.915 0 0 0 4.007-.607c.413-.075.561-.398.518-.716a.797.797 0 0 0 .016-.132c.074-2.844.161-5.686.437-8.52.043-.442-.261-.67-.602-.693a.722.722 0 0 0-.271-.035c-6.142.357-12.292.436-18.442.508a.84.84 0 0 0-.123-.117A10.76 10.76 0 0 0 .9 2.048C-.004 1.785-.387 3.19.513 3.452c3.383.982 4.902 3.906 5.55 7.17.195.98.29 1.974.368 2.969.005.062-.849.728-.943.898a1.71 1.71 0 0 0-.145 1.232c.298 1.251 1.32 1.768 2.496 1.974a3.268 3.268 0 0 0-.492.954.688.688 0 0 0-.025.358c-.002.674.193 1.324.685 1.806.512.502 1.245.662 1.935.7.08.003.15-.006.216-.022.025-.002.05 0 .075-.004 1.271-.207 2.197-1.146 2.312-2.432a1.974 1.974 0 0 0-.308-1.252c1.993-.033 3.952-.2 5.936-.397-.192.25-.342.525-.433.817-.501 1.626 1.08 2.772 2.591 2.853.08.004.15-.006.216-.021.025-.002.049-.001.075-.005 1.271-.207 2.197-1.146 2.312-2.432.06-.659-.206-1.228-.634-1.656.327-.037.654-.075.98-.11.924-.098.934-1.556 0-1.456zm-1.225-3.14a67.223 67.223 0 0 1-3.519.514 89.36 89.36 0 0 0-.03-1.64c1.195-.017 2.39-.021 3.583-.008-.011.378-.024.756-.034 1.134zm.085-2.59a135.631 135.631 0 0 0-3.69.012 82.53 82.53 0 0 0-.071-1.295c1.271-.021 2.542-.035 3.814-.027-.021.437-.037.873-.053 1.31zm.27-4.697c-.055.643-.1 1.287-.14 1.93-1.328-.009-2.657.006-3.986.03a90.44 90.44 0 0 0-.154-1.768c1.427-.053 2.854-.114 4.28-.192zm-5.328 7.957a67.367 67.367 0 0 1-4.104.274c-.084-.615-.17-1.23-.256-1.846a99.61 99.61 0 0 1 4.33-.199c.017.59.025 1.18.03 1.77zm-.088-3.22c-1.49.042-2.98.11-4.467.217a161.7 161.7 0 0 1-.182-1.409c1.526-.034 3.053-.074 4.58-.106.025.432.05.865.069 1.298zm-.316-4.494c.056.58.107 1.16.152 1.742-1.553.033-3.106.075-4.659.109a71.697 71.697 0 0 1-.174-1.73c1.56-.03 3.121-.07 4.68-.12zm-5.153 8.025a66.106 66.106 0 0 1-3.67-.049 33.965 33.965 0 0 0-.143-1.33c1.187-.162 2.376-.291 3.567-.394l.246 1.773zm-.442-3.202c-1.2.106-2.399.237-3.595.396a17.844 17.844 0 0 0-.447-1.854c1.283.005 2.564-.01 3.847-.033.062.498.127.995.195 1.491zM5.619 5.431c1.642-.02 3.283-.043 4.924-.07.05.577.109 1.154.173 1.73-1.4.025-2.802.04-4.203.029a11.363 11.363 0 0 0-.894-1.69zm4.34 14.628c-.006 0-.01-.003-.017-.003-.803-.043-1.17-.316-1.164-1.085.234-.63.709-.9 1.313-.949.55.124 1.009.399.998 1.033-.01.605-.617.897-1.13 1.004zm10.39-.437c-.007 0-.012-.002-.018-.003-.803-.043-1.17-.316-1.164-1.085.234-.63.708-.9 1.313-.948.55.123 1.009.398.998 1.032-.01.605-.617.897-1.13 1.004z"/>
</svg>
