<svg width="24" height="24" viewBox="0 0 24 24" xmlns="http://www.w3.org/2000/svg">
    <path d="M23.915.971c-.03-.323-.253-.622-.673-.62C15.857.402 8.492.017 1.108 0c-.028 0-.053.004-.079.006C1.009.004.989 0 .967 0a.71.71 0 0 0-.703.703v.983c0 .037.006.073.012.108a.745.745 0 0 0-.012.174c.39 6.536-.326 14.47-.21 21.01a.745.745 0 0 0 .031.197c.035.321.258.627.671.646 7.376.339 14.757.073 22.135-.07a.658.658 0 0 0 .647-.5.666.666 0 0 0 .126-.414c-.044-4.576.005-10.394.11-15.218a.775.775 0 0 0 .02-.875c.042-1.85.092-3.7.15-5.55a.721.721 0 0 0-.029-.223zm-15.927.54l1.48.031c-.052 1.581.003 3.157.115 4.734-.575-.02-1.15-.042-1.726-.065.06-1.566.074-3.133.131-4.7zm-3.086-.058c.56.01 1.12.018 1.682.03-.057 1.554-.071 3.11-.13 4.665-.563-.026-1.126-.057-1.69-.088.122-1.534.136-3.07.138-4.607zm-3.232.233v-.274c.609.004 1.217.012 1.826.02 0 1.517-.016 3.033-.131 4.546-.528-.032-1.056-.063-1.584-.1 0-.156.002-.313 0-.467a.81.81 0 0 0-.002-.173 68.82 68.82 0 0 0-.11-3.27c-.002-.044-.012-.081-.02-.12a.651.651 0 0 0 .02-.162zm20.586 20.672c-6.934.141-13.87.366-20.802.083-.051-4.622.284-10.378.327-15.159 6.85.485 13.717.578 20.583.586a534.205 534.205 0 0 0-.108 14.49zm.138-15.895a418.053 418.053 0 0 1-11.402-.146 45.625 45.625 0 0 1-.119-4.742c3.882.092 7.763.186 11.65.182-.048 1.527-.09 3.104-.129 4.706z"/>
    <path d="M15.907 5.3c.063.286.28.532.66.532h2.108a.669.669 0 0 0 .418-.133c.25-.112.454-.359.425-.64-.065-.63-.07-1.263-.07-1.897a.736.736 0 0 0-.028-.195c-.022-.332-.246-.648-.675-.648h-2.038a.637.637 0 0 0-.551.279.632.632 0 0 0-.433.634c.005.563.065 1.124.07 1.687.002.154.046.28.114.381zm2.14-1.576c.003.235.009.469.02.703h-.884l-.037-.703h.9zm3.579 1.265V3.022c0-.907-1.405-.907-1.405 0v1.967c0 .906 1.405.906 1.405 0zm-9.557 3.373a.633.633 0 0 0-.353.06c-4.332-.167-7.742 4.019-6.93 8.348.633 3.37 4.012 5.178 7.204 5.027 2.985-.14 5.952-1.965 6.736-4.957.463-1.767-.06-3.676-.936-5.222-1.186-2.092-3.431-3.027-5.72-3.256zm5.243 8.329c-.58 2.216-2.967 3.455-5.087 3.683-2.343.252-4.616-.73-5.704-2.87-1.889-3.716 1.779-8.364 5.783-7.62a.722.722 0 0 0 .368-.026c3.128.618 5.508 3.519 4.64 6.833z"/>
    <path d="M11.983 10.928a.763.763 0 0 0-.31.03c-1.246-.024-2.421.538-3.242 1.527a4.381 4.381 0 0 0-.951 3.613c.284 1.514 1.723 3.142 4.211 3.142.076 0 .151-.002.226-.005 1.983-.094 3.682-1.356 4.131-3.07.347-1.323-.203-2.582-.561-3.215-.647-1.143-1.891-1.86-3.504-2.022zm2.464 4.941c-.274 1.045-1.435 1.623-2.464 1.734-.118.013-.236.02-.354.02-1.059 0-1.954-.519-2.395-1.386-.367-.723-.309-1.577.16-2.342.501-.817 1.345-1.325 2.202-1.325.133 0 .267.013.4.037.1.02.193.02.285.004.787.178 1.466.647 1.872 1.295.373.595.475 1.274.294 1.963z"/>
    <path d="M12.494 13.166c-.346-.163-.755-.1-.96.252-.181.308-.095.798.251.961.231.11.377.209.546.4.103.116.156.33.16.47.026.903 1.432.906 1.406 0-.027-.913-.582-1.697-1.403-2.083z"/>
</svg>
