<svg width="24" height="24" viewBox="0 0 24 24" xmlns="http://www.w3.org/2000/svg">
    <path d="M12.35 0c-.343 0-.702.011-1.05.033h-.423a.8.8 0 0 0-.335.074c-2.653.053-4.922 1.5-5.93 3.79-.988 2.244-.514 4.795-.071 6.517 1.017 3.962 7.16 13.54 7.81 13.557 1.853.05 7.384-10.188 7.946-15.017.21-1.807.118-4.4-1.511-6.489C17.51.83 15.345 0 12.35 0zm6.198 9.48c-.652 4.358-2.949 8.949-6.017 12.048-2.429-2.79-4.425-6.141-5.781-9.71-.905-2.383-1.215-4.37-.947-6.077.368-2.334 2.39-3.964 4.917-3.964.05 0 .1 0 .173.002a.804.804 0 0 0 .335-.071h.284a.797.797 0 0 0 .167-.018c.225-.01.45-.015.677-.015 2.403 0 4.107.632 5.208 1.933 1.05 1.24 1.381 3.216.984 5.872z"/>
    <path d="M12.222 2.642c-.052 0-.104 0-.138.002-2.475-.099-4.279 1.477-4.44 3.848-.186 2.714 2.266 4.728 4.673 4.905.106.008.213.012.32.012 2.374 0 4.633-1.84 4.932-4.017.15-1.093-.146-2.101-.856-2.916-.971-1.114-2.734-1.834-4.491-1.834zm3.562 4.595c-.2 1.458-1.937 2.36-3.446 2.36C10.584 9.59 9.54 8.115 9.542 6.69c.002-1.086.628-2.247 2.376-2.247l.105.001h.027l.148-.002c.974 0 2.376.305 3.125 1.164.393.45.547 1 .461 1.63z"/>
</svg>
