<svg width="24" height="24" viewBox="0 0 24 24" xmlns="http://www.w3.org/2000/svg">
    <path d="M8.24 8.224c.867.615 1.85.94 2.841.94 1.298 0 2.575-.546 3.597-1.536.273-.263.557-.572.634-.663a.799.799 0 00.093-.14c.982-1.855.817-3.775-.452-5.267a15.3 15.3 0 00-.662-.745.78.78 0 00-.185-.13C13.224.23 12.33 0 11.45 0c-1.21 0-2.378.429-3.471 1.274a.726.726 0 00-.13.127c-.078.101-.33.446-.553.773-1.456 2.136-1.068 4.624.943 6.05zm.66-5.736a.752.752 0 00.062-.075c.075-.104.399-.386.776-.575a3.731 3.731 0 012.676-.259c.431.115 1.027.484 1.33.821.78.874 1.026 1.89.712 2.94-.119.396-.31.744-.374.812-.718.964-1.72 1.486-2.838 1.486-1.363 0-2.657-.793-3.145-1.928-.263-.61-.508-1.84.8-3.222zm11.68 9.564a.601.601 0 00-.087-.299c-.639-1.084-1.743-1.58-2.982-1.428-.01.002-.02.006-.031.007-.024-.002-.046-.007-.07-.007-4.292 0-8.614-.201-12.89.253a.616.616 0 00-.252.025c-.877.268-1.62.87-2.001 1.712a.828.828 0 00-.068.24.616.616 0 00-.067.274c-.058 2.931-.18 5.859 0 8.788a.597.597 0 00.33.514.53.53 0 00.377.143c1.16 0 2.32-.005 3.478-.058.003.389.004.75.005 1.061 0 .108.025.2.065.279a.52.52 0 00.515.358c3.28.004 6.558.068 9.837.072.514 0 .668-.554.465-.89l-.005-.41c.94-.047 1.879-.055 2.82-.055a.536.536 0 00.354-.122c.337.05.716-.145.715-.585a126.13 126.13 0 00-.357-9.504.623.623 0 00-.151-.368zm-8.621-.3c.265.309.525.62.76.953-.207.285-.422.564-.635.845-.29-.229-.561-.482-.836-.73.248-.35.49-.702.711-1.068zM7.546 22.776c-.009-1.972-.046-5.146-.05-6.881-.001-.791-1.227-.791-1.226 0 .003 1.291.024 3.382.038 5.18-.99.046-1.982.056-2.974.058-.138-2.754-.032-5.506.023-8.261.25-.515.645-.89 1.193-1.071 2.109-.222 4.228-.286 6.35-.293-.206.318-.425.628-.645.936a.422.422 0 00-.073.29.432.432 0 00.089.593c.408.353.8.722 1.221 1.056a19.55 19.55 0 01-1.731 3.605.523.523 0 00-.068.17.491.491 0 00.025.436c.737 1.39 1.476 2.778 2.118 4.215-1.43-.014-2.86-.028-4.29-.033zm3.204-4.433c.585-.97 1.07-1.988 1.487-3.039.435.946.83 1.906 1.124 2.91l.005.012-.005.014c-.266 1.116-.622 2.206-.98 3.295a79.623 79.623 0 00-1.631-3.192zm6.425 3.204a218.016 218.016 0 00-.226-5.754c-.044-.787-1.27-.79-1.226 0 .1 1.785.227 5.068.251 7.048-.975-.004-1.95-.014-2.926-.023.459-1.428.96-2.843 1.308-4.304a.517.517 0 00-.005-.265.487.487 0 00.005-.31c-.378-1.288-.917-2.511-1.493-3.72.264-.354.538-.702.796-1.061a.388.388 0 00.053-.11.45.45 0 00.076-.604 9.796 9.796 0 00-.684-.926c1.42.013 2.838.033 4.253.033a.635.635 0 00.154 0c.817-.1 1.488.083 1.923.821a.7.7 0 00.073.1c.232 3.002.335 6.008.35 9.018-.894.002-1.789.01-2.682.057z"/>
</svg>
