<svg width="24" height="24" viewBox="0 0 24 24" xmlns="http://www.w3.org/2000/svg">
    <path d="M23.467 3.592C22.23 2.583 21.09 1.484 19.92.411a.848.848 0 00-1.004-.125c-.26.139-.54.546-.739.766-1.745 1.94-3.54 3.834-5.544 5.547a.547.547 0 01-.763-.057C10.177 4.586 8.693 2.492 7.25.373a.836.836 0 00-.771-.37c-.296.02-.596.187-.701.235a.928.928 0 00-.18.107c-1.256.951-2.564 1.84-3.876 2.725a.586.586 0 00-.055.042c-.028.024-.286.153-.438.407a.75.75 0 00.1.933c2.144 2.324 4.163 4.743 6.299 7.074.2.218.177.546-.048.738-2.456 2.103-4.47 4.61-7.11 6.54a.709.709 0 00-.281.373c-.071.254.065.596.143.733a.8.8 0 00.185.218c1.216 1.03 2.334 2.147 3.48 3.239.313.297.7.297 1.003.142.263-.135.55-.537.753-.753 1.784-1.91 3.616-3.775 5.654-5.456a.546.546 0 01.762.071c1.655 1.984 3.097 4.102 4.496 6.244.19.29.48.398.765.384.296-.015.6-.178.706-.224a.957.957 0 00.182-.104c1.274-.931 2.6-1.797 3.929-2.66a.772.772 0 00.055-.042c.03-.024.289-.148.446-.399a.749.749 0 00-.081-.934c-2.121-2.386-4.112-4.865-6.226-7.255a.529.529 0 01.05-.75c2.445-2.155 4.422-4.724 7.047-6.715a.704.704 0 00.274-.38c.067-.254-.077-.593-.158-.73a.809.809 0 00-.188-.214zm-2.17 1.023c-2.42 2.082-4.362 4.592-6.872 6.598a.773.773 0 00-.227.28c-.083.182-.093.525-.037.723a.8.8 0 00.183.32c2.102 2.309 4.054 4.726 6.093 7.081a.455.455 0 01-.097.698c-.74.487-1.475.979-2.2 1.484a.521.521 0 01-.736-.138c-1.301-1.947-2.666-3.854-4.2-5.656-.192-.225-.44-.647-.685-.814-.307-.21-.747-.267-1.122.016-2.382 1.8-4.463 3.867-6.471 6.003a.528.528 0 01-.753.02c-.489-.47-.98-.936-1.483-1.392a.445.445 0 01.017-.696C5.168 17.1 7.16 14.623 9.71 12.658a.789.789 0 00.22-.251c.088-.164.112-.494.051-.686a.81.81 0 00-.188-.309c-2.147-2.273-4.147-4.658-6.23-6.979a.455.455 0 01.083-.7 95.078 95.078 0 002.169-1.52.521.521 0 01.738.125c1.34 1.926 2.742 3.81 4.313 5.587.196.222.453.639.7.802.31.204.752.255 1.121-.034 2.346-1.839 4.385-3.94 6.35-6.109a.529.529 0 01.754-.033c.498.461.999.92 1.51 1.368a.444.444 0 01-.003.696z"/>
</svg>
