<svg width="25" height="25" viewBox="0 0 25 25" xmlns="http://www.w3.org/2000/svg">
    <path d="M24.288 4.588c-1.235-1.008-2.374-2.105-3.542-3.177a.847.847 0 0 0-1.003-.126c-.26.14-.54.546-.738.766-1.743 1.937-3.536 3.83-5.538 5.542a.546.546 0 0 1-.763-.058C11.012 5.581 9.53 3.49 8.09 1.373a.835.835 0 0 0-.771-.37c-.296.02-.596.186-.701.234a.927.927 0 0 0-.18.107c-1.254.951-2.561 1.838-3.871 2.723a.585.585 0 0 0-.055.042c-.029.024-.286.152-.438.406a.749.749 0 0 0 .1.932c2.142 2.322 4.159 4.738 6.292 7.067.2.218.177.546-.047.738-2.454 2.1-4.466 4.604-7.102 6.532a.708.708 0 0 0-.282.374c-.071.253.065.594.143.732a.8.8 0 0 0 .185.217c1.214 1.028 2.332 2.145 3.477 3.236.312.297.7.296 1.001.141.263-.135.55-.535.752-.752 1.782-1.908 3.612-3.771 5.649-5.45a.545.545 0 0 1 .761.071c1.653 1.982 3.093 4.097 4.492 6.238.188.288.479.398.763.383.296-.015.599-.177.705-.223a.956.956 0 0 0 .182-.105c1.273-.93 2.597-1.795 3.925-2.657a.771.771 0 0 0 .056-.041c.029-.024.288-.148.445-.399a.748.748 0 0 0-.082-.934c-2.118-2.383-4.107-4.86-6.219-7.247a.528.528 0 0 1 .05-.75c2.443-2.152 4.418-4.718 7.04-6.708a.703.703 0 0 0 .274-.378c.066-.254-.077-.593-.158-.73a.808.808 0 0 0-.188-.214zM22.12 5.61c-2.417 2.08-4.357 4.587-6.864 6.591a.772.772 0 0 0-.227.28c-.083.182-.093.524-.038.722.031.11.09.217.184.32 2.1 2.306 4.05 4.721 6.086 7.074a.455.455 0 0 1-.096.697c-.74.486-1.474.978-2.198 1.483a.52.52 0 0 1-.735-.138c-1.3-1.946-2.663-3.85-4.196-5.65-.192-.225-.44-.647-.685-.814-.306-.209-.746-.267-1.12.016-2.38 1.798-4.458 3.863-6.465 5.997a.528.528 0 0 1-.752.02 72.553 72.553 0 0 0-1.481-1.39.444.444 0 0 1 .017-.695c2.458-2.04 4.447-4.515 6.994-6.478a.788.788 0 0 0 .22-.251c.088-.164.112-.493.051-.685a.81.81 0 0 0-.187-.309c-2.146-2.27-4.143-4.653-6.225-6.972a.455.455 0 0 1 .084-.699 94.98 94.98 0 0 0 2.166-1.517.52.52 0 0 1 .738.124c1.339 1.924 2.74 3.806 4.308 5.58.196.223.453.64.7.802.31.204.751.255 1.12-.034 2.343-1.837 4.38-3.936 6.344-6.102a.528.528 0 0 1 .752-.034c.497.461.998.92 1.51 1.367a.444.444 0 0 1-.005.695z"/>
</svg>
