<svg width="24" height="24" viewBox="0 0 24 24" xmlns="http://www.w3.org/2000/svg">
    <path d="M1.07 23.982c3.011-.49 5.9-1.253 8.048-3.546a.6.6 0 00.092-.131c4.307-4.191 8.526-8.477 12.349-13.118.279.253.528.52.745.833a109.579 109.579 0 01-6.218 7.24c-.524.557.442 1.248.959.698a109.9 109.9 0 006.467-7.55c.12-.154.16-.42.06-.594-.406-.715-.913-1.242-1.524-1.77a.624.624 0 00-.098-.138c1.096-1.653 1.04-3.57-.509-4.96C19.907-.43 17.593-.191 16.016.934h-.001c-.184-.117-.42-.124-.627.08-4.42 4.354-8.475 9.055-12.344 13.901-.016.02-.027.04-.04.061a.662.662 0 00-.083.108c-1.53 2.481-2.206 5.232-2.556 8.1a.565.565 0 00.051.325c.054.285.285.534.654.474zM21.055 5.103c-1.31-1.17-2.603-2.355-3.98-3.443 2.436-1.352 5.572.785 3.98 3.443zm-5.2-2.885c1.697 1.287 3.254 2.738 4.846 4.15-3.716 4.525-7.816 8.703-12.005 12.787-1.49-1.279-3.02-2.51-4.384-3.925 3.629-4.527 7.422-8.924 11.542-13.012zM3.621 16.22c1.337 1.354 2.815 2.555 4.26 3.794-1.356 1.302-3.069 1.963-4.861 2.385-.375-.273-.753-.546-1.07-.885a.735.735 0 00-.113-.095c.338-1.817.867-3.573 1.784-5.2z"/>
</svg>
