<svg width="24" height="24" viewBox="0 0 24 24" xmlns="http://www.w3.org/2000/svg">
    <path d="M23.08 1.012c.18-.386-.007-.966-.569-.98C16.248-.126 8.144.36 1.881.12a.585.585 0 0 0-.453.165.596.596 0 0 0-.381.581c-.003 7.449-.318 15.077.725 22.474.034.237.16.376.32.438a.598.598 0 0 0 .491.221c1.2-.006 2.926-.081 4.126-.088a.6.6 0 0 0 .536-.291c.173-.1.298-.281.298-.543v-7.462c0-.033-.005-.062-.009-.093.004-.027.01-.055.01-.082 0-.395-.303-.612-.659-.659-.487-.065-1.24-.082-1.729-.086-.027-.155-.056-.573-.084-.728.447-.11 1.169-.147 1.637-.152.075 0 .14-.014.202-.033.346.021.683-.184.632-.625-.244-2.121-.25-3.976-.09-6.104.883-2.124 3.208-2.88 5.358-2.61v1.034c-3.857.142-4.597 3.927-3.752 7.24a.674.674 0 0 0 .096.212c.046.283.255.535.627.535h1.624v1.056c-.537.278-1.103.2-1.712.284-.007.002-.013.005-.02.006-.342-.017-.677.191-.638.63.164 1.87.261 5.587.35 7.462a.636.636 0 0 0 .467.6c.08.037.173.058.28.058 4.243.004 7.961.079 12.203-.087a.625.625 0 0 0 .522-.292.614.614 0 0 0 .312-.543c.165-7.199-.082-14.397-.088-21.596l-.003-.03zm-1.22 21.159c-3.902.137-7.28.082-11.185.074-.073-1.823-.157-4.748-.277-6.232.706-.145 1.381-.158 1.999-.532a.608.608 0 0 0 .31-.505.724.724 0 0 0 .016-.151v-2.02c0-.426-.333-.638-.663-.636a.703.703 0 0 0-.171-.022h-1.613c-.593-2.554-.258-5.482 3.017-5.355a.573.573 0 0 0 .606-.428.601.601 0 0 0 .229-.494V3.85c0-.428-.336-.64-.668-.635-3.052-.517-6.096.555-7.298 3.533a.57.57 0 0 0-.03.374c-.14 1.89-.146 3.51.03 5.395-.593.037-1.449.135-1.998.356-.31.124-.526.393-.474.731 0 .055.003.11.014.166.097.496.18 1.258.263 1.756.052.31.39.497.686.48.013 0 .024.004.037.004.425 0 1.112.003 1.536.028v6.564c-.9.017-2.326.057-3.225.073-.946-6.98-.659-14.192-.64-21.224 5.95.192 13.548-.218 19.406-.116.012 6.946.236 13.89.094 20.836z"/>
</svg>
