<svg width="24" height="24" viewBox="0 0 24 24" xmlns="http://www.w3.org/2000/svg">
    <path d="M19.662.354a.495.495 0 00-.516-.346.528.528 0 00-.17-.002c-1.173.183-2.31.632-3.379 1.337-2.05-.574-4.24-.54-6.417.098C8.155.653 6.923.193 5.415.034a.422.422 0 00-.473.304.513.513 0 00-.066.15c-.348 1.359-.349 2.678-.002 3.922-1.794 2.29-2.138 4.644-1.022 7 .86 1.815 2.727 3.2 5.019 3.734a2.95 2.95 0 00-.43.848 2.37 2.37 0 01-.22.01c-.934 0-1.606-.584-2.318-1.203a14.5 14.5 0 00-.621-.522c-.68-.53-1.418-.788-2.257-.788-.15 0-.307.008-.457.025a.392.392 0 00-.082.007l-.038.004-.062.006c-.229.033-.378.198-.38.42-.001.236.169.506.445.549 1.142.353 1.637 1.252 2.16 2.203.202.367.411.746.662 1.1.569.805 1.406 1.214 2.487 1.214.266 0 .554-.025.857-.074.05.71-.055 1.86-1.117 2.498a.473.473 0 00-.221.55c.07.249.295.414.539.381a.299.299 0 00.039.002c.78 0 1.491-.217 2.085-.63-.153.321-.342.61-.573.872a.494.494 0 00-.083.543c.085.19.27.317.46.317a.357.357 0 00.092-.01c1.262 0 2.25-.646 2.814-1.825.462 1.182 1.278 1.939 2.485 2.31a.468.468 0 00.593-.306.512.512 0 00-.137-.558 3.823 3.823 0 01-.455-.916c.372.268.839.404 1.393.404.318 0 .673-.045 1.055-.134a.45.45 0 00.366-.455.529.529 0 00-.35-.504.492.492 0 00-.217-.133c-1.31-.412-1.222-1.871-1.144-3.158.013-.22.026-.431.03-.628.02-.774-.02-1.76-.473-2.632 2.864-.42 4.615-1.699 5.503-4.012.873-2.272.313-5.118-1.391-7.103a7.14 7.14 0 00-.248-3.462zm.849 9.724c-.532 2.332-2.383 3.659-5.5 3.943a.502.502 0 00-.423.3.5.5 0 00.032.633c.731.836.686 2.098.642 3.319-.038 1.068-.077 2.165.411 2.98-.255-.233-.43-.6-.54-1.118-.14-.66-.194-1.35-.246-2.019a19.768 19.768 0 00-.177-1.656.427.427 0 00-.433-.378.565.565 0 00-.426.199.511.511 0 00-.113.42c.08.49.112 1.009.145 1.558.018.303.037.609.065.911a.53.53 0 00-.015.089c-.071.893-.103 1.915.15 2.891-.944-1.084-.96-2.856-.975-4.438-.004-.37-.007-.72-.022-1.053-.014-.317-.27-.483-.517-.483a.5.5 0 00-.362.147.458.458 0 00-.123.346c.014.311.022.632.03.96.01.455.022.926.05 1.394a.494.494 0 00-.038.207c.033 1.159-.307 2.504-1.328 3.016.703-1.437.644-3.095.587-4.702-.007-.21-.015-.422-.02-.631-.01-.319-.265-.485-.512-.485a.508.508 0 00-.364.146.466.466 0 00-.127.346c.007.253.018.51.03.77a23.9 23.9 0 01.033 1.674.506.506 0 00-.045.106c-.2.69-.609 1.23-1.168 1.554.476-.922.453-1.943.337-2.662-.005-.254-.19-.517-.495-.517a.57.57 0 00-.127.015c-.391.095-.732.14-1.041.14-1.058 0-1.722-.515-2.45-1.903a8.53 8.53 0 00-.437-.744c.15.122.299.25.452.382.2.172.406.35.62.518.837.654 1.74.876 2.814.687a.49.49 0 00.175-.066.44.44 0 00.272-.336c.113-.547.391-.983.827-1.296a.509.509 0 00.19-.586c-.08-.247-.309-.397-.534-.348-1.987-.247-3.683-1.257-4.775-2.844-1.317-1.913-1.077-4.331.641-6.469a.52.52 0 00.109-.237.453.453 0 00.094-.454c-.316-1.033-.354-2.087-.116-3.217 1.216.185 2.233.629 3.024 1.32a.518.518 0 00.681-.007c2.074-.603 4.105-.617 6.053-.04a.44.44 0 00.428-.054c.914-.629 1.853-1.04 2.866-1.252.238.923.266 1.813.085 2.716a.525.525 0 00-.005.175.489.489 0 00.132.384c1.422 1.543 1.96 3.638 1.479 5.75z"/>
    <path d="M15.266 6.315c-.2 0-.402.01-.598.033a.48.48 0 00-.228.022c-.422.143-1.068.247-1.922.308l-.032.005a.287.287 0 00-.032-.005c-.853-.06-1.5-.165-1.922-.308a.484.484 0 00-.228-.022 5.264 5.264 0 00-.598-.034c-1.365 0-2.617.497-3.348 1.328-.561.638-.796 1.455-.68 2.362.282 2.198 1.913 3.267 4.988 3.267.58 0 1.143-.034 1.665-.07a.522.522 0 00.155-.035.5.5 0 00.155.035c.521.036 1.084.07 1.665.07 3.074 0 4.706-1.069 4.988-3.267.116-.907-.119-1.724-.68-2.362-.731-.83-1.983-1.327-3.348-1.327zm2.969 3.92c-.695 1.838-2.228 2.086-3.636 2.086-.523 0-1.059-.04-1.577-.078l-.363-.026a.507.507 0 00-.172.018.48.48 0 00-.173-.018l-.362.026a21.26 21.26 0 01-1.577.078c-1.409 0-2.942-.248-3.637-2.085-.244-.647-.2-1.219.133-1.7.674-.977 2.32-1.334 3.427-1.202l.026.001c.628.203 1.505.284 2.131.328h.081c.614-.044 1.503-.127 2.112-.328l.027-.001c1.11-.132 2.753.225 3.427 1.202.333.481.377 1.053.133 1.7z"/>
    <path d="M10.486 8.997c0-.03.003-.058-.002-.089-.12-.678-1.102-1.15-1.555-.52-.319.445-.252 1.238-.097 1.727.14.444.544.783 1.033.68.699-.148.663-1.175.632-1.727a.374.374 0 00-.011-.07zm-.817 1.054H9.65a.234.234 0 00-.059-.014c-.084-.351-.18-.841-.05-1.186.07-.182.22.332.221.352.024.277-.033.58-.093.848zm5.74-1.054c0-.03.003-.059-.002-.089a.955.955 0 00-1.095-.794l-.026.005a.419.419 0 00-.296.103c-.213.18-.359.47-.324.754a.58.58 0 00.024.101c-.031.436.027.867.143 1.29a.38.38 0 00.054.113.448.448 0 00.235.206c.257.105.543.141.812.061a.384.384 0 00.098-.047c.1-.033.185-.11.221-.241.125-.454.193-.92.167-1.39a.406.406 0 00-.011-.072zm-.818 1.054h-.018a.237.237 0 00-.06-.014c-.254-.047-.098-1.019-.038-1.181.07.023.204.107.207.193v.019c.018.337-.017.66-.09.983z"/>
</svg>
