<svg width="24" height="24" viewBox="0 0 24 24" xmlns="http://www.w3.org/2000/svg">
    <path d="M23.288 21.733c-.538.001-1.077.007-1.615.015-.36-4.255-.6-8.519-.83-12.783a.775.775 0 00.044-.438 4.258 4.258 0 01-.056-.704c.461.014.922.033 1.384.062.385.023.59-.239.622-.533.094-.21.071-.46-.16-.662a26.3 26.3 0 00-2.406-1.844c.003-.022.007-.044.007-.068-.005-1.3-.059-2.598-.063-3.898-.001-.328-.26-.49-.515-.485a.585.585 0 00-.114-.018 67.661 67.661 0 00-3.458-.062c-.321 0-.483.247-.486.497a.543.543 0 00-.016.131c0 .407-.005.813-.02 1.219A77.246 77.246 0 0011.7.392a.682.682 0 00-.659.06.615.615 0 00-.326.103C7.096 2.885 3.736 5.575.28 8.137c-.612.453-.117 1.44.49 1.215h.002c.273-.017.545-.038.817-.058.285 4.33.055 8.676.373 13.005-.335-.004-.67-.007-1.005-.015-.89-.02-.888 1.36 0 1.379 3.38.073 6.758-.03 10.135-.166 3.181-.066 6.361-.186 9.54-.353.885-.018 1.77-.03 2.657-.033.888-.002.888-1.38-.001-1.378zM16.628 1.32a65.38 65.38 0 012.586.047c.011.94.038 1.88.05 2.819a38.225 38.225 0 00-2.68-1.53c.03-.445.04-.89.043-1.336zm-5.254 20.786a328.96 328.96 0 01-3.214.117 33.45 33.45 0 01-.133-2.36.63.63 0 00.327.087c.842 0 .842-1.305 0-1.305a.632.632 0 00-.336.093c.005-.765.027-1.53.075-2.295.95-.627 2.002-.78 3.069-.336a48.44 48.44 0 01.212 5.999zm1.305-.055c.055-2.12-.026-4.23-.248-6.34a.693.693 0 00-.087-.277.557.557 0 00-.317-.368c-1.619-.79-3.362-.683-4.817.407a.697.697 0 00-.16.17.642.642 0 00-.244.475 36.72 36.72 0 00.052 6.126c-1.199.006-2.398.005-3.596-.007-.311-4.316-.084-8.649-.37-12.967-.002-.028-.008-.053-.013-.08 5.552-.48 11.079-1.395 16.652-1.387.006.206.015.412.036.617a.642.642 0 00-.043.28l.093 1.698a2.7 2.7 0 00-.824-1.192c-1.788-1.493-4.917-.56-4.797 1.996.03.649.313 1.682.768 2.17 1.238 1.329 3.314.539 4.363-.59.293-.315.475-.675.564-1.048.187 3.348.397 6.695.68 10.037-2.565.057-5.128.172-7.692.28zm5.665-10.417a1.29 1.29 0 01-.045.09c-.192.342-.528.63-.913.813v-.884c.319-.01.638-.016.958-.02zm-.958-.987v-.745c.13.041.254.095.373.16.248.139.44.338.559.566-.311.004-.622.01-.932.02zm-1.9.078l.038-.076a1.58 1.58 0 01.855-.745v.78l-.893.041zm.893.965v1.042c-.21-.02-.413-.08-.593-.193a1.064 1.064 0 01-.5-.799l1.093-.05zM2.761 7.897C5.588 5.763 8.394 3.6 11.374 1.681c.007-.004.011-.01.018-.014 3.13 1.339 6.253 2.807 8.988 4.845-5.901-.112-11.746.884-17.62 1.385z"/>
</svg>
