<svg width="24" height="24" viewBox="0 0 24 24" xmlns="http://www.w3.org/2000/svg">
    <path d="M.44 2.047l.979.003c4.915.007 19.224.025 21.939.072a27.21 27.21 0 0 0 .191 3.447l-.03-.287.03.499a.669.669 0 0 1-.018.107h.025c-1.707-.08-8.171-.144-13.94-.202-3.854-.038-7.528-.076-8.872-.11a.985.985 0 0 1-.061-.267.916.916 0 0 1-.03-.224A20.914 20.914 0 0 0 .44 2.047zm0 7.633l1.094.004h.525c5.31.008 18.687.026 21.299.072a27.101 27.101 0 0 0 .191 3.447l-.03-.265.03.475a.628.628 0 0 1-.018.109h.025c-1.707-.08-8.174-.144-13.944-.202-3.853-.038-7.524-.075-8.868-.11a.993.993 0 0 1-.061-.267.914.914 0 0 1-.03-.224A20.913 20.913 0 0 0 .44 9.681zm0 7.635l1.206.004c4.864.006 19.016.025 21.712.072a27.12 27.12 0 0 0 .191 3.446l-.03-.265.03.474a.635.635 0 0 1-.018.11h.025c-1.706-.079-8.168-.144-13.934-.202-3.858-.039-7.535-.076-8.879-.11a1.01 1.01 0 0 1-.06-.266.914.914 0 0 1-.03-.224 20.915 20.915 0 0 0-.213-3.039z"/>
</svg>
