<svg width="24" height="24" viewBox="0 0 24 24" xmlns="http://www.w3.org/2000/svg">
    <path d="M13.41 0l.023.537c.035.806.064 1.612.092 2.419.057 1.573.116 3.2.216 4.795.007.096.023.194.051.309l.017.133c.003.717.437 1.44 1.402 1.44h8.517v5.336H15.21c-1.112 0-1.337.906-1.38 1.184l-.021.09c-.058.174-.08.35-.069.539.155 2.447.188 4.841.199 6.654l.003.564H9.731l-.015-.545c-.02-.67-.043-1.339-.067-2.007-.046-1.318-.095-2.68-.102-4.026 0-.126-.018-.25-.056-.392l-.02-.078.003-.08c.014-.44-.133-.85-.404-1.126-.245-.25-.578-.376-.992-.376H.531C.528 13.92.508 12.5.398 11.09l-.007-.093-.043-.083a1.291 1.291 0 01-.078-.178l2.58-.185c1.457-.106 2.915-.212 4.372-.315.127-.009.253-.034.396-.08l.1-.03.105.005c.456.027.867-.116 1.1-.375.194-.217.268-.519.22-.897-.388-3.074-.669-5.658-.77-8.277L8.35 0h5.06z"/>
</svg>
