<svg width="24" height="24" viewBox="0 0 24 24" xmlns="http://www.w3.org/2000/svg">
    <path d="M23.506 7.13c-.42-.209-.844-.412-1.258-.631.312-.498.588-1.016.835-1.551.14-.304.089-.658-.22-.84a.651.651 0 0 0-.708.056c-.702.219-1.383.494-2.054.793a4.462 4.462 0 0 0-.606-.693c-3.156-2.937-8.288-.242-9.677 2.958-2.72-.122-5.015-1.506-6.896-3.207a.622.622 0 0 0-.257-.14c-.322-.146-.753-.076-.837.33-.38 1.83.138 3.557 1.432 4.893a24.999 24.999 0 0 1-.775-.035.64.64 0 0 0-.287.043c-.42-.085-.926.195-.741.659a5.381 5.381 0 0 0 2.588 2.85c-.128.002-.256 0-.386-.004a.684.684 0 0 0-.212.025c-.386.063-.714.425-.445.809.838 1.19 1.993 2.07 3.4 2.623-.827.828-2 1.126-3.299 1.032a.765.765 0 0 0-.142.003.638.638 0 0 0-.293.073c-.274.144-.414.51-.222.758.025.032.052.061.078.092-.531-.053-1.06-.13-1.588-.238-.574-.283-1.286.42-.741.868 1.069.88 2.27 1.534 3.61 2.027.129.048.244.052.344.029 7.436 1.816 14.116-3.363 16.273-9.521.2-.57.358-1.185.457-1.814.91-.31 1.803-.663 2.695-1.02.633-.253.472-1.19-.068-1.228zm-4.694 4.829c-2.287 5.24-8.27 9.347-14.68 7.6a.697.697 0 0 0-.201-.024 11.059 11.059 0 0 1-.8-.349c.523.03 1.05.037 1.579.02.72-.023.787-.932.201-1.085-.015-.008-.027-.017-.043-.023 1.247-.263 2.321-.927 3.032-1.993.22-.329.015-.64-.284-.765a.667.667 0 0 0-.209-.105c-1.041-.314-1.937-.837-2.653-1.543.73-.06 1.448-.198 2.16-.38.716-.185.475-1.137-.191-1.092a.715.715 0 0 0-.221-.053c-1.523-.112-2.752-.84-3.477-1.968.623.025 1.246.028 1.87.028.708 0 .786-.872.236-1.068-1.33-.93-2.144-2.177-2.2-3.612 2.021 1.606 4.44 2.778 7.216 2.796a.616.616 0 0 0 .388-.12.545.545 0 0 0 .331-.343c.735-2.16 3.208-4.05 5.835-3.668 1.034.15 1.898.641 2.44 1.446 1.242 1.85.48 4.448-.33 6.3zm2.004-5.398a5.095 5.095 0 0 0-.154-.518c.192-.085.385-.167.58-.247-.103.168-.21.333-.322.495a.574.574 0 0 0-.104.27zm.167 1.482a6.76 6.76 0 0 0-.064-.926c.042.05.093.096.16.136.27.16.548.307.828.449-.306.117-.614.231-.924.341z"/>
    <path d="M15.267 6.049c-.824 0-.824 1.279 0 1.279.825 0 .825-1.28 0-1.28z"/>
</svg>
