<svg xmlns="http://www.w3.org/2000/svg" viewBox="0 0 30 30">
  <path d="M17.742 16.86h-.825v.736h.814c.13 0 .242-.005.331-.068.086-.06.138-.174.138-.314s-.052-.242-.139-.295c-.081-.056-.201-.06-.32-.06zM15.196 11.885c.086-.053.138-.169.138-.312 0-.14-.054-.241-.14-.289-.08-.052-.202-.06-.318-.06h-.825v.728h.814c.13 0 .238-.002.331-.067zM20.534 11.099l-.46 1.306h.924z"/>
  <path d="M27.152 17.334a.568.568 0 0 0 .212-.455v-.698c0-.299-.207-.541-.462-.541h-1.343c-.418 0-.731.143-.96.361-.065-.21-.231-.361-.433-.361h-1.341c-.369 0-.661.107-.881.282-.08-.166-.226-.282-.4-.282h-2.233c-.18 0-.332.123-.408.298-.032-.025-.055-.056-.09-.08-.323-.202-.667-.218-1.023-.218h-1.546c-.181 0-.333.124-.41.3-.234-.179-.563-.3-1.032-.3h-2.139a.434.434 0 0 0-.34.173l-.506.64-.486-.634a.432.432 0 0 0-.344-.18H8.294c-.255 0-.462.243-.462.542v3.277c0 .299.207.542.462.542h2.652a.435.435 0 0 0 .34-.174l.51-.647.485.638a.437.437 0 0 0 .347.182h1.3c.256 0 .464-.242.464-.541v-.559h.372c.452 0 .78-.109 1.017-.274v.833c0 .298.207.54.463.54h.673c.255 0 .462-.241.462-.54V18.8h.253c.061 0 .105.003.136.005.003.058.003.13.002.176v.476c0 .298.206.54.463.54h.671a.403.403 0 0 0 .204-.06c.061.037.13.06.204.06h2.234c.073 0 .14-.023.2-.058a.403.403 0 0 0 .202.059h1.303c.416 0 .753-.119 1.007-.33.07.194.234.33.425.33h1.307c.946 0 1.51-.59 1.51-1.574 0-.458-.104-.799-.334-1.075l-.014-.016zM14.764 18.36h-.835v1.099h-1.3l-.826-1.085-.857 1.085H8.294v-3.277h2.693l.824 1.073.852-1.073h2.142c.53 0 1.125.174 1.125 1.08 0 .91-.58 1.098-1.166 1.098zm4.03-.149c.095.16.108.309.11.598v.65h-.671v-.41c0-.197.016-.49-.108-.642-.099-.117-.247-.145-.492-.145h-.715v1.196h-.672v-3.277h1.546c.338 0 .585.017.806.154.21.15.343.354.343.728 0 .525-.3.791-.475.873a.74.74 0 0 1 .327.275zm2.752-1.352h-1.568v.596h1.53v.669h-1.53v.651l1.568.004v.68h-2.234V16.18h2.234v.678zm1.707 2.598H21.95v-.703h1.299c.126 0 .216-.019.273-.08a.315.315 0 0 0 .078-.214.3.3 0 0 0-.081-.217c-.051-.05-.121-.073-.239-.073-.625-.024-1.41.023-1.41-1.013 0-.477.255-.976.958-.976h1.341v.697H22.94c-.122 0-.201.006-.268.06-.074.053-.101.132-.101.236 0 .124.062.207.146.244a.67.67 0 0 0 .261.037l.36.012c.363.01.612.083.766.262.13.157.201.357.201.694 0 .705-.377 1.034-1.052 1.034zm2.736 0h-1.304v-.703h1.298c.127 0 .217-.019.274-.08a.32.32 0 0 0 .078-.214.305.305 0 0 0-.081-.217c-.053-.05-.122-.073-.239-.073-.626-.024-1.41.023-1.41-1.013 0-.477.255-.976.957-.976h1.342v.697h-1.228c-.122 0-.202.006-.269.06-.074.053-.1.132-.1.236 0 .124.062.207.145.244a.676.676 0 0 0 .26.037l.361.012c.363.01.613.083.766.262.132.157.201.357.201.694 0 .705-.376 1.034-1.051 1.034z"/>
  <path d="M14.802 16.86h-.873v.834h.866c.257 0 .416-.15.416-.432 0-.287-.167-.403-.41-.403zM13.262 19.161v-2.628l-1.028 1.292zM4.187 12.405H5.1l-.457-1.306zM8.963 16.86v.596h1.469v.669h-1.47v.652h1.646l.765-.963-.732-.954z"/>
  <path d="M8.523 14.36c.183 0 .348-.126.422-.322l.09-.232v.013c0 .299.206.54.461.54h.687a.415.415 0 0 0 .25-.097.412.412 0 0 0 .249.097h2.236a.402.402 0 0 0 .231-.083.41.41 0 0 0 .233.083h.67c.255 0 .462-.242.462-.54v-.651h.256c.058 0 .099.001.13.004.003.055.002.121.002.165l-.001.072.002.414c.002.297.209.536.463.536h.676a.396.396 0 0 0 .207-.065.407.407 0 0 0 .21.065h.683c.224 0 .402-.189.445-.435.38.373.914.435 1.212.435h.784c.187 0 .357-.134.427-.338l.136-.393h.772l.141.398c.073.202.241.333.427.333h1.363c.255 0 .463-.242.463-.541V13.3l.41.797a.453.453 0 0 0 .397.26h.948c.255 0 .463-.241.463-.54V10.54c0-.299-.207-.541-.463-.541h-.684c-.256 0-.464.242-.464.541v.338l-.318-.617a.452.452 0 0 0-.396-.261h-1.02c-.255 0-.462.242-.462.54V11l-.246-.673c-.074-.198-.24-.327-.425-.327H20.05a.418.418 0 0 0-.276.107.417.417 0 0 0-.276-.107h-.648c-.55 0-.957.156-1.257.46-.034-.259-.217-.46-.449-.46h-.683c-.182 0-.337.126-.412.304-.028-.024-.051-.053-.083-.075-.315-.213-.644-.23-1.043-.23h-1.54a.406.406 0 0 0-.231.084.402.402 0 0 0-.232-.083h-2.236a.409.409 0 0 0-.25.097.411.411 0 0 0-.25-.097H9.069c-.185 0-.353.13-.425.33l-.398 1.096-.438-1.112c-.076-.191-.24-.314-.42-.314H6.294c-.256 0-.463.242-.463.54v.471l-.25-.685C5.506 10.13 5.34 10 5.154 10H4.16c-.185 0-.353.13-.425.328l-1.198 3.277a.622.622 0 0 0 .038.51.45.45 0 0 0 .386.244h.728c.186 0 .355-.132.426-.333l.141-.399h.776l.14.396c.07.203.24.335.427.335h1.362c.255 0 .462-.242.462-.54v-.013l.088.232c.074.197.24.323.422.323h.589zm9.307-3.436c.216-.262.555-.382 1.017-.382h.648v.702h-.635c-.245 0-.383.043-.515.194-.115.138-.192.399-.192.743 0 .35.058.604.184.769.103.13.292.169.467.169h.3l.945-2.577h1.003l1.134 3.1v-3.1h1.019l1.178 2.283v-2.283h.684v3.277h-.948l-1.27-2.46v2.46h-1.363l-.26-.73h-1.391l-.252.73H18.8c-.326 0-.738-.085-.97-.363-.236-.278-.36-.655-.36-1.25 0-.487.074-.931.361-1.282zm1.26.861l-.29.793a.456.456 0 0 1-.131-.015c-.023-.05-.053-.157-.053-.382 0-.227.047-.345.053-.355.019-.021.035-.04.186-.04h.235zm-2.631-1.243h.683v3.277h-.683v-3.277zm-3.077 0h1.54c.341 0 .593.01.81.156.211.147.339.36.339.726 0 .522-.298.793-.472.874.147.065.272.18.331.276.095.163.112.308.112.6v.645h-.676l-.003-.414c0-.197.016-.48-.105-.638-.098-.115-.247-.14-.488-.14h-.718v1.192h-.67v-3.277zm-2.7 0h2.235v.682H11.35v.59h1.53v.672h-1.53v.655h1.567v.678h-2.236v-3.277zm-3.72.708v2.57H5.6l-.258-.732H3.95l-.26.731h-.727l1.199-3.277h.994l1.139 3.103v-3.103h1.093l.876 2.223.804-2.223h1.116v3.277h-.686l-.003-2.566-.97 2.566h-.59l-.972-2.569z"/>
  <path d="M28 4H2C.897 4 0 4.897 0 6v18c0 1.103.897 2 2 2h26c1.103 0 2-.897 2-2V6c0-1.103-.897-2-2-2zm1 20c0 .551-.448 1-1 1H2c-.552 0-1-.449-1-1V6c0-.551.448-1 1-1h26c.552 0 1 .449 1 1v18z"/>
</svg>
