<svg xmlns="http://www.w3.org/2000/svg" viewBox="0 0 30 30">
    <path d="M28 4H2C.897 4 0 4.897 0 6v18c0 1.103.897 2 2 2h26c1.103 0 2-.897 2-2V6c0-1.103-.897-2-2-2zm1 20c0 .551-.449 1-1 1H2c-.551 0-1-.449-1-1V6c0-.551.449-1 1-1h26c.551 0 1 .449 1 1v18z"/>
    <path d="M7.677 14.266a.2.2 0 00.228.053.17.17 0 00.106-.194l-.314-1.368a.121.121 0 00-.002-.009c-.113-.39-.47-.449-.729-.459H6.96l-1.768-.002c-.091 0-.17.06-.185.143a.172.172 0 00.121.193c1.078.358 1.96.926 2.55 1.643zm15.858-1.963h-1.15c-.46 0-.724.141-.883.473l-2.383 4.981a.162.162 0 00.014.165c.035.05.094.079.158.079h1.35a.189.189 0 00.176-.112c.165-.404.272-.661.307-.744h.974l1.183.002c.039.151.134.552.173.717.019.08.095.137.184.137h1.177c.057 0 .11-.024.146-.065s.05-.095.038-.146l-1.28-5.351a.185.185 0 00-.184-.136zm-1.926 3.675l.895-2.138.114.492.39 1.646h-1.4z"/>
    <path d="M11.816 12.38a.193.193 0 00-.157-.078h-1.37a.188.188 0 00-.175.11L8.511 16.19l-.172-.575a.142.142 0 00-.009-.023c-.253-.542-.933-1.39-1.881-2.062-.065-.046-.154-.048-.221-.006s-.097.12-.074.192L7.47 17.87a.187.187 0 00.18.124l1.518-.002a.19.19 0 00.173-.104l2.49-5.344a.162.162 0 00-.016-.164zm2.272-.083h-1.303a.184.184 0 00-.186.144l-.989 5.355a.165.165 0 00.042.141c.036.04.088.062.144.062h1.302c.092 0 .17-.061.186-.145l.99-5.354a.164.164 0 00-.042-.141.195.195 0 00-.144-.062zm3.608 1.155h.05c.51 0 .87.107 1.097.187a.202.202 0 00.16-.011.175.175 0 00.093-.122l.152-.826c.016-.085-.039-.168-.128-.194a4.634 4.634 0 00-1.3-.182c-1.607 0-2.735.746-2.744 1.814-.01.79.807 1.231 1.422 1.494.632.269.844.441.841.682-.004.369-.506.536-.97.536a3.676 3.676 0 01-1.522-.285.202.202 0 00-.163.008.175.175 0 00-.095.123l-.161.87a.173.173 0 00.123.193c.444.144 1.064.233 1.66.24h.001c1.705-.001 2.815-.739 2.827-1.88.006-.627-.427-1.1-1.36-1.49-.57-.256-.92-.426-.917-.686 0-.234.32-.47.934-.47z"/>
</svg>
